<svg width="291" height="82" viewBox="0 0 291 82" fill="none" xmlns="http://www.w3.org/2000/svg">
<rect width="291" height="82" rx="30" fill="#DEDEDE"/>
<path d="M68.8752 38.2H68.5752V27.95C68.5752 26.15 67.4252 24.85 65.6252 24.85C63.8752 24.85 62.7252 26.15 62.7252 27.95V49.3C62.7252 56.3 68.3252 60.4 75.2752 60.4C83.0252 60.4 88.3252 54.8 88.3252 47.2C88.3252 39.55 83.0252 34.6 76.3752 34.6C72.5252 34.6 70.0752 36.6 68.8752 38.2ZM68.5752 48.95V46.1C68.5752 42.05 71.5252 39.8 75.5752 39.8C79.9252 39.8 82.4252 42.45 82.4252 47.45C82.4252 51.8 80.3252 55.05 75.2252 55.05C71.2752 55.05 68.5752 53.1 68.5752 48.95ZM104.41 60.4C112.01 60.4 117.46 54.9 117.46 47.5C117.46 40.05 112.01 34.6 104.41 34.6C96.8104 34.6 91.3604 40.05 91.3604 47.5C91.3604 54.9 96.8104 60.4 104.41 60.4ZM97.2604 47.5C97.2604 43.15 100.01 39.95 104.41 39.95C108.81 39.95 111.56 43.15 111.56 47.5C111.56 51.8 108.81 55.05 104.41 55.05C100.01 55.05 97.2604 51.8 97.2604 47.5ZM127.161 41.5C127.161 40.15 128.461 39.4 130.611 39.4C132.511 39.4 134.261 40.05 135.911 41.45C136.361 41.85 136.911 42 137.461 42C138.861 42 139.961 40.9 139.961 39.4C139.961 38.55 139.561 38.05 139.111 37.55C137.311 35.7 133.861 34.6 130.661 34.6C125.961 34.6 121.611 37.1 121.611 41.9C121.611 50.45 135.111 48.7 135.111 53C135.111 54.45 133.611 55.55 130.911 55.55C128.061 55.55 126.211 54.4 124.961 52.95C124.561 52.5 123.911 52.05 122.961 52.05C121.511 52.05 120.361 53.2 120.361 54.65C120.361 55.45 120.711 56.1 121.311 56.8C122.811 58.5 126.061 60.4 130.711 60.4C136.961 60.4 140.811 57 140.811 52.5C140.811 43.85 127.161 45.9 127.161 41.5Z" fill="black"/>
<path d="M147.905 30.35V35H146.405C144.655 35 143.355 36 143.355 37.7C143.355 39.4 144.655 40.4 146.405 40.4H147.905V50.55C147.905 57.4 151.605 60 156.755 60H158.305C160.005 60 161.155 59.05 161.155 57.25C161.155 55.45 160.005 54.5 158.305 54.5H156.955C155.105 54.5 153.755 53.45 153.755 50.5V40.4H158.105C159.905 40.4 161.155 39.4 161.155 37.7C161.155 36 159.905 35 158.105 35H153.755V30.35C153.755 28.55 152.605 27.25 150.805 27.25C149.055 27.25 147.905 28.55 147.905 30.35ZM175.579 60.4C179.479 60.4 181.779 58.7 183.029 57.05H183.329V57.15C183.329 58.8 184.479 60 186.179 60C187.979 60 189.129 58.7 189.129 56.9V45.65C189.129 38.75 183.529 34.6 176.579 34.6C168.829 34.6 163.479 40.2 163.479 47.8C163.479 55.45 168.929 60.4 175.579 60.4ZM169.379 47.5C169.379 43.15 171.529 39.9 176.579 39.9C180.529 39.9 183.229 41.85 183.229 46.05V48.9C183.229 52.9 180.329 55.15 176.229 55.15C171.879 55.15 169.379 52.45 169.379 47.5ZM207.919 34.6C204.169 34.6 201.519 36.25 200.119 37.8H199.819V37.75C199.719 36.1 198.619 35 196.969 35C195.169 35 194.019 36.3 194.019 38.1V56.9C194.019 58.7 195.169 60 196.969 60C198.769 60 199.919 58.7 199.919 56.9V44.25C199.919 41.85 201.669 39.8 205.819 39.8C208.719 39.8 211.169 40.8 211.169 44.8V56.9C211.169 58.7 212.319 60 214.119 60C215.919 60 217.069 58.7 217.069 56.9V44.8C217.069 37.35 212.719 34.6 207.919 34.6ZM225.199 30.9C227.249 30.9 228.699 29.4 228.699 27.4C228.699 25.4 227.249 23.9 225.199 23.9C223.199 23.9 221.749 25.4 221.749 27.4C221.749 29.4 223.199 30.9 225.199 30.9ZM222.299 56.9C222.299 58.7 223.449 60 225.249 60C226.999 60 228.199 58.7 228.199 56.9V38.05C228.199 36.3 226.999 35 225.249 35C223.449 35 222.299 36.3 222.299 38.05V56.9Z" fill="#A2AA3B"/>
</svg>
