<svg width="17" height="16" viewBox="0 0 17 16" fill="none" xmlns="http://www.w3.org/2000/svg">
<path d="M4.07096 12.6667C4.07096 13.4 4.67096 14 5.4043 14H10.7376C11.471 14 12.071 13.4 12.071 12.6667V6C12.071 5.26667 11.471 4.66667 10.7376 4.66667H5.4043C4.67096 4.66667 4.07096 5.26667 4.07096 6V12.6667ZM6.07096 6H10.071C10.4376 6 10.7376 6.3 10.7376 6.66667V12C10.7376 12.3667 10.4376 12.6667 10.071 12.6667H6.07096C5.7043 12.6667 5.4043 12.3667 5.4043 12V6.66667C5.4043 6.3 5.7043 6 6.07096 6ZM10.4043 2.66667L9.93096 2.19333C9.81096 2.07333 9.63763 2 9.4643 2H6.67763C6.5043 2 6.33096 2.07333 6.21096 2.19333L5.73763 2.66667H4.07096C3.7043 2.66667 3.4043 2.96667 3.4043 3.33333C3.4043 3.7 3.7043 4 4.07096 4H12.071C12.4376 4 12.7376 3.7 12.7376 3.33333C12.7376 2.96667 12.4376 2.66667 12.071 2.66667H10.4043Z" fill="red"/>
</svg>
