<svg width="17" height="16" viewBox="0 0 17 16" fill="none" xmlns="http://www.w3.org/2000/svg">
<path d="M3.40462 15.8C3.03796 15.8 2.72396 15.6694 2.46262 15.408C2.20173 15.1471 2.07129 14.8334 2.07129 14.4667V5.13337C2.07129 4.7667 2.20173 4.4527 2.46262 4.19137C2.72396 3.93048 3.03796 3.80003 3.40462 3.80003H9.35462L8.02129 5.13337H3.40462V14.4667H12.738V9.83337L14.0713 8.50003V14.4667C14.0713 14.8334 13.9408 15.1471 13.68 15.408C13.4186 15.6694 13.1046 15.8 12.738 15.8H3.40462ZM10.8546 4.18337L11.8046 5.1167L7.40462 9.5167V10.4667H8.33796L12.7546 6.05003L13.7046 6.98337L9.28796 11.4C9.16573 11.5223 9.02418 11.6196 8.86329 11.692C8.70196 11.764 8.5324 11.8 8.35462 11.8H6.73796C6.54907 11.8 6.39084 11.7363 6.26329 11.6087C6.13529 11.4807 6.07129 11.3223 6.07129 11.1334V9.5167C6.07129 9.33892 6.10462 9.16937 6.17129 9.00803C6.23796 8.84714 6.3324 8.70559 6.45462 8.58337L10.8546 4.18337ZM13.7046 6.98337L10.8546 4.18337L12.5213 2.5167C12.788 2.25003 13.1075 2.1167 13.48 2.1167C13.852 2.1167 14.1657 2.25003 14.4213 2.5167L15.3546 3.4667C15.6102 3.72225 15.738 4.03337 15.738 4.40003C15.738 4.7667 15.6102 5.07781 15.3546 5.33337L13.7046 6.98337Z" fill="blue"/>
</svg>
