<svg width="64" height="64" viewBox="0 0 64 64" fill="none" xmlns="http://www.w3.org/2000/svg">
<path d="M32 14.6667C34.4754 14.6667 36.8493 15.6501 38.5997 17.4004C40.35 19.1508 41.3333 21.5247 41.3333 24.0001C41.3333 26.4754 40.35 28.8494 38.5997 30.5997C36.8493 32.3501 34.4754 33.3334 32 33.3334C29.5246 33.3334 27.1507 32.3501 25.4003 30.5997C23.65 28.8494 22.6667 26.4754 22.6667 24.0001C22.6667 21.5247 23.65 19.1508 25.4003 17.4004C27.1507 15.6501 29.5246 14.6667 32 14.6667ZM13.3333 21.3334C14.8267 21.3334 16.2133 21.7334 17.4133 22.4534C17.0133 26.2667 18.1333 30.0534 20.4267 33.0134C19.0933 35.5734 16.4267 37.3334 13.3333 37.3334C11.2116 37.3334 9.17677 36.4906 7.67648 34.9903C6.17619 33.49 5.33333 31.4551 5.33333 29.3334C5.33333 27.2117 6.17619 25.1769 7.67648 23.6766C9.17677 22.1763 11.2116 21.3334 13.3333 21.3334ZM50.6667 21.3334C52.7884 21.3334 54.8232 22.1763 56.3235 23.6766C57.8238 25.1769 58.6667 27.2117 58.6667 29.3334C58.6667 31.4551 57.8238 33.49 56.3235 34.9903C54.8232 36.4906 52.7884 37.3334 50.6667 37.3334C47.5733 37.3334 44.9067 35.5734 43.5733 33.0134C45.8983 30.0119 46.9775 26.2299 46.5867 22.4534C47.7867 21.7334 49.1733 21.3334 50.6667 21.3334ZM14.6667 48.6667C14.6667 43.1467 22.4267 38.6667 32 38.6667C41.5733 38.6667 49.3333 43.1467 49.3333 48.6667V53.3334H14.6667V48.6667ZM0 53.3334V49.3334C0 45.6267 5.04 42.5068 11.8667 41.6001C10.2933 43.4134 9.33333 45.9201 9.33333 48.6667V53.3334H0ZM64 53.3334H54.6667V48.6667C54.6667 45.9201 53.7067 43.4134 52.1333 41.6001C58.96 42.5068 64 45.6267 64 49.3334V53.3334Z" fill="#27272A"/>
</svg>
