<svg width="64" height="64" viewBox="0 0 64 64" fill="none" xmlns="http://www.w3.org/2000/svg">
<path d="M32 22C30.0222 22 28.0888 22.5865 26.4443 23.6853C24.7998 24.7841 23.5181 26.3459 22.7612 28.1732C22.0043 30.0004 21.8063 32.0111 22.1921 33.9509C22.578 35.8907 23.5304 37.6725 24.9289 39.0711C26.3275 40.4696 28.1093 41.422 30.0491 41.8079C31.9889 42.1937 33.9996 41.9957 35.8268 41.2388C37.6541 40.4819 39.2159 39.2002 40.3147 37.5557C41.4135 35.9112 42 33.9778 42 32C42 29.3478 40.9464 26.8043 39.0711 24.9289C37.1957 23.0536 34.6522 22 32 22ZM32 38C30.8133 38 29.6533 37.6481 28.6666 36.9888C27.6799 36.3295 26.9108 35.3925 26.4567 34.2961C26.0026 33.1997 25.8838 31.9933 26.1153 30.8295C26.3468 29.6656 26.9182 28.5965 27.7574 27.7574C28.5965 26.9182 29.6656 26.3468 30.8295 26.1153C31.9933 25.8838 33.1997 26.0026 34.2961 26.4567C35.3925 26.9108 36.3295 27.6799 36.9888 28.6666C37.6481 29.6533 38 30.8133 38 32C38 33.5913 37.3679 35.1174 36.2426 36.2426C35.1174 37.3679 33.5913 38 32 38ZM60 14H4C3.46957 14 2.96086 14.2107 2.58579 14.5858C2.21071 14.9609 2 15.4696 2 16V48C2 48.5304 2.21071 49.0391 2.58579 49.4142C2.96086 49.7893 3.46957 50 4 50H60C60.5304 50 61.0391 49.7893 61.4142 49.4142C61.7893 49.0391 62 48.5304 62 48V16C62 15.4696 61.7893 14.9609 61.4142 14.5858C61.0391 14.2107 60.5304 14 60 14ZM48.4125 46H15.5875C14.916 43.729 13.687 41.6621 12.0125 39.9875C10.3379 38.313 8.27099 37.084 6 36.4125V27.5875C8.27099 26.916 10.3379 25.687 12.0125 24.0125C13.687 22.3379 14.916 20.271 15.5875 18H48.4125C49.084 20.271 50.313 22.3379 51.9875 24.0125C53.6621 25.687 55.729 26.916 58 27.5875V36.4125C55.729 37.084 53.6621 38.313 51.9875 39.9875C50.313 41.6621 49.084 43.729 48.4125 46ZM58 23.3425C55.6011 22.311 53.689 20.3989 52.6575 18H58V23.3425ZM11.3425 18C10.311 20.3989 8.39891 22.311 6 23.3425V18H11.3425ZM6 40.6575C8.39891 41.689 10.311 43.6011 11.3425 46H6V40.6575ZM52.6575 46C53.689 43.6011 55.6011 41.689 58 40.6575V46H52.6575Z" fill="black"/>
</svg>
