<svg width="64" height="64" viewBox="0 0 64 64" fill="none" xmlns="http://www.w3.org/2000/svg">
<path d="M25 54C25 54.9889 24.7068 55.9556 24.1573 56.7779C23.6079 57.6001 22.827 58.241 21.9134 58.6194C20.9998 58.9978 19.9945 59.0969 19.0245 58.9039C18.0546 58.711 17.1637 58.2348 16.4645 57.5355C15.7652 56.8363 15.289 55.9454 15.0961 54.9755C14.9031 54.0055 15.0022 53.0002 15.3806 52.0866C15.759 51.173 16.3999 50.3921 17.2221 49.8427C18.0444 49.2932 19.0111 49 20 49C21.3261 49 22.5979 49.5268 23.5355 50.4645C24.4732 51.4021 25 52.6739 25 54ZM46 49C45.0111 49 44.0444 49.2932 43.2221 49.8427C42.3999 50.3921 41.759 51.173 41.3806 52.0866C41.0022 53.0002 40.9031 54.0055 41.0961 54.9755C41.289 55.9454 41.7652 56.8363 42.4645 57.5355C43.1637 58.2348 44.0546 58.711 45.0245 58.9039C45.9945 59.0969 46.9998 58.9978 47.9134 58.6194C48.827 58.241 49.6079 57.6001 50.1573 56.7779C50.7068 55.9556 51 54.9889 51 54C51 52.6739 50.4732 51.4021 49.5355 50.4645C48.5979 49.5268 47.3261 49 46 49ZM58.8675 18.8825L52.045 41.0575C51.6094 42.4916 50.723 43.7469 49.5174 44.6373C48.3118 45.5277 46.8512 46.0055 45.3525 46H20.7325C19.2123 45.9951 17.7346 45.4976 16.5208 44.5823C15.3071 43.6669 14.4226 42.3828 14 40.9225L5.4525 11H3C2.20435 11 1.44129 10.6839 0.87868 10.1213C0.31607 9.55871 0 8.79565 0 8C0 7.20435 0.31607 6.44129 0.87868 5.87868C1.44129 5.31607 2.20435 5 3 5H6.205C7.29086 5.00335 8.34635 5.35871 9.21315 6.01274C10.0799 6.66678 10.7113 7.58425 11.0125 8.6275L12.835 15H56C56.4695 15 56.9325 15.1101 57.3516 15.3216C57.7708 15.5331 58.1345 15.84 58.4134 16.2177C58.6923 16.5954 58.8787 17.0332 58.9576 17.4961C59.0365 17.9589 59.0056 18.4338 58.8675 18.8825ZM51.9375 21H14.5475L19.77 39.275C19.8298 39.4841 19.9561 39.6679 20.1298 39.7988C20.3035 39.9296 20.5151 40.0002 20.7325 40H45.3525C45.5665 40.0004 45.7751 39.9322 45.9474 39.8053C46.1198 39.6784 46.2469 39.4995 46.31 39.295L51.9375 21Z" fill="#27272A"/>
</svg>
